<svg version="1.2" xmlns="http://www.w3.org/2000/svg" viewBox="0 0 2048 2048" width="2048" height="2048">
	<title>Nouveau projet</title>
	<defs>
		<filter x="-50%" y="-50%" width="200%" height="200%" id="f1" ><feDropShadow dx="11.57017697435771" dy="13.788799976141604" stdDeviation="0" flood-color="#000000" flood-opacity=".3"/></filter>
	</defs>
	<style>
		.s0 { fill: #ebc9ef } 
		.s1 { fill: #dbabe1 } 
		.s2 { filter: url(#f1);fill: #e057f0 } 
		.s3 { fill: #000000 } 
	</style>
	<path id="Calque 1" fill-rule="evenodd" class="s0" d="m159 0h1730c87.8 0 159 71.2 159 159v1730c0 87.8-71.2 159-159 159h-1730c-87.8 0-159-71.2-159-159v-1730c0-87.8 71.2-159 159-159z"/>
	<path id="Forme 2" fill-rule="evenodd" class="s1" d="m282 315h1484c155.7 0 282 126.3 282 282v854c0 155.7-126.3 282-282 282h-1484c-155.7 0-282-126.3-282-282v-854c0-155.7 126.3-282 282-282z"/>
	<path id="Forme 1" fill-rule="evenodd" class="s2" d="m426.5 776h1175c149.4 0 270.5 121.1 270.5 270.5 0 149.4-121.1 270.5-270.5 270.5h-1175c-149.4 0-270.5-121.1-270.5-270.5 0-149.4 121.1-270.5 270.5-270.5z"/>
	<path id="NativeUI" class="s3" aria-label="NativeUI"  d="m587.6 898v251h-21.2l-144.3-214.8v214.8h-21.4v-251h21.4l144.4 215v-215zm198.8 251h-22.1q-3.1-8.8-4-26-10.8 14.1-27.7 21.9-16.7 7.5-35.5 7.5-26.9 0-43.6-14.9-16.6-15-16.6-38 0-27.2 22.6-43.1 22.8-15.8 63.3-15.8h37.4v-21.2q0-20-12.4-31.4-12.3-11.5-35.9-11.5-21.5 0-35.7 11-14.1 11-14.1 26.5l-20.7-0.1q0-22.3 20.7-38.5 20.7-16.3 50.8-16.3 31.2 0 49.2 15.6 18.1 15.6 18.6 43.5v88.2q0 27.1 5.7 40.5zm-86.9-14.8q20.7 0 36.9-10 16.4-10 23.8-26.7v-41h-36.9q-30.9 0.3-48.3 11.3-17.4 10.9-17.4 30 0 15.7 11.6 26.1 11.7 10.3 30.3 10.3zm147.5-219.4h20.7v47.7h38.6v16.9h-38.6v124.3q0 15.5 5.5 23.1 5.7 7.6 18.8 7.6 5.2 0 16.7-1.7l0.9 16.8q-8.1 3-22.1 3-21.2 0-30.8-12.3-9.7-12.4-9.7-36.3v-124.5h-34.3v-16.9h34.3zm125.2 47.8v186.5h-20.7v-186.5zm-24.3-54q0-5.8 3.8-9.8 3.8-4.1 10.3-4.1 6.6 0 10.4 4.1 3.9 4 3.9 9.8 0 5.9-3.9 9.9-3.8 3.9-10.4 3.9-6.5 0-10.3-3.9-3.8-4-3.8-9.9zm81.2 54l57.2 158 56.7-158h21.2l-69.6 186.5h-16.8l-69.9-186.5zm238.9 189.9q-23.8 0-43.1-11.7-19.2-11.7-29.8-32.6-10.7-21-10.7-47v-7.4q0-26.9 10.3-48.5 10.5-21.5 29.1-33.8 18.7-12.4 40.4-12.4 33.9 0 53.7 23.3 20 23.1 20 63.3v11.5h-133v4q0 31.7 18.1 52.9 18.2 21 45.8 21 16.6 0 29.2-6 12.7-6.1 23-19.3l13 9.8q-22.8 32.9-66 32.9zm-3.8-175.8q-23.3 0-39.3 17.1-15.9 17-19.3 45.8h111.8v-2.2q-0.8-26.9-15.3-43.8-14.5-16.9-37.9-16.9zm270.2-78.6h21.4v171.3q-0.2 25.4-11.2 44.2-11 18.8-31.2 28.9-20 10-46 10-39.7 0-63.6-21.5-23.8-21.7-24.7-60v-172.9h21.1v169.8q0 31.7 18.1 49.3 18.1 17.4 49.1 17.4 31 0 48.9-17.6 18.1-17.6 18.1-48.9zm106.4 0v250.9h-21.2v-250.9z"/>
</svg>